<svg xmlns="http://www.w3.org/2000/svg" xmlns:xlink="http://www.w3.org/1999/xlink" width="500" zoomAndPan="magnify" viewBox="0 0 375 374.999991" height="500" preserveAspectRatio="xMidYMid meet" version="1.0"><defs><clipPath id="54919cf2d4"><path d="M 187.5 0 C 83.945312 0 0 83.945312 0 187.5 C 0 291.054688 83.945312 375 187.5 375 C 291.054688 375 375 291.054688 375 187.5 C 375 83.945312 291.054688 0 187.5 0 Z M 187.5 0 " clip-rule="nonzero"/></clipPath><clipPath id="39ec23d02f"><path d="M 81.34375 69.277344 L 293.59375 69.277344 L 293.59375 265 L 81.34375 265 Z M 81.34375 69.277344 " clip-rule="nonzero"/></clipPath><clipPath id="1bca822ef7"><path d="M 116 140 L 223 140 L 223 305.527344 L 116 305.527344 Z M 116 140 " clip-rule="nonzero"/></clipPath></defs><g clip-path="url(#54919cf2d4)"><rect x="-37.5" width="450" fill="#000000" y="-37.499999" height="449.999989" fill-opacity="1"/></g><g clip-path="url(#39ec23d02f)"><path fill="#d9d9d9" d="M 220.808594 244.820312 C 262.085938 237.390625 293.652344 201.074219 293.652344 157.746094 C 293.652344 109.09375 253.847656 69.285156 205.195312 69.285156 L 81.34375 69.285156 L 116.730469 104.667969 L 205.195312 104.667969 C 234.386719 104.667969 258.269531 128.554688 258.269531 157.746094 C 258.269531 186.941406 234.386719 210.824219 205.195312 210.824219 L 187.503906 210.824219 L 187.503906 264.847656 L 222.886719 244.417969 C 222.199219 244.558594 221.507812 244.691406 220.808594 244.820312 Z M 220.808594 244.820312 " fill-opacity="1" fill-rule="evenodd"/></g><g clip-path="url(#1bca822ef7)"><path fill="#38b6ff" d="M 152.117188 246.207031 C 152.117188 222.621094 152.117188 199.03125 152.117188 175.4375 L 205.191406 175.4375 C 214.925781 175.4375 222.886719 167.480469 222.886719 157.746094 C 222.886719 148.015625 214.925781 140.054688 205.191406 140.054688 L 116.730469 140.054688 C 116.730469 175.4375 116.730469 210.824219 116.730469 246.207031 L 116.730469 305.707031 L 152.117188 285.277344 Z M 152.117188 246.207031 " fill-opacity="1" fill-rule="evenodd"/></g></svg>