<svg xmlns="http://www.w3.org/2000/svg" xmlns:xlink="http://www.w3.org/1999/xlink" width="500" zoomAndPan="magnify" viewBox="0 0 375 374.999991" height="500" preserveAspectRatio="xMidYMid meet" version="1.0"><defs><clipPath id="c1e0201db6"><path d="M 187.5 0 C 83.945312 0 0 83.945312 0 187.5 C 0 291.054688 83.945312 375 187.5 375 C 291.054688 375 375 291.054688 375 187.5 C 375 83.945312 291.054688 0 187.5 0 Z M 187.5 0 " clip-rule="nonzero"/></clipPath><clipPath id="5b9e84b530"><path d="M 68.71875 53.695312 L 315.46875 53.695312 L 315.46875 281 L 68.71875 281 Z M 68.71875 53.695312 " clip-rule="nonzero"/></clipPath><clipPath id="ae5b652d15"><path d="M 109 135 L 234 135 L 234 328.195312 L 109 328.195312 Z M 109 135 " clip-rule="nonzero"/></clipPath></defs><g clip-path="url(#c1e0201db6)"><rect x="-37.5" width="450" fill="#000000" y="-37.499999" height="449.999989" fill-opacity="1"/></g><g clip-path="url(#5b9e84b530)"><path fill="#d9d9d9" d="M 230.796875 257.710938 C 278.765625 249.078125 315.457031 206.875 315.457031 156.515625 C 315.457031 99.972656 269.195312 53.710938 212.648438 53.710938 L 68.71875 53.710938 L 109.839844 94.832031 L 212.648438 94.832031 C 246.578125 94.832031 274.332031 122.59375 274.332031 156.519531 C 274.332031 190.445312 246.578125 218.203125 212.648438 218.203125 L 192.089844 218.203125 L 192.089844 280.988281 L 233.210938 257.246094 C 232.414062 257.410156 231.609375 257.566406 230.796875 257.710938 Z M 230.796875 257.710938 " fill-opacity="1" fill-rule="evenodd"/></g><g clip-path="url(#ae5b652d15)"><path fill="#38b6ff" d="M 150.964844 259.324219 C 150.964844 231.910156 150.964844 204.496094 150.964844 177.078125 L 212.644531 177.078125 C 223.957031 177.078125 233.210938 167.832031 233.210938 156.519531 C 233.210938 145.207031 223.957031 135.960938 212.644531 135.960938 L 109.839844 135.960938 C 109.839844 177.078125 109.839844 218.203125 109.839844 259.324219 L 109.839844 328.472656 L 150.964844 304.730469 Z M 150.964844 259.324219 " fill-opacity="1" fill-rule="evenodd"/></g></svg>